<svg width="142" height="164" viewBox="0 0 142 164" fill="none" xmlns="http://www.w3.org/2000/svg">
<path fill-rule="evenodd" clip-rule="evenodd" d="M58.6277 7.08606C69.5357 6.2153 69.0532 12.2027 75.9803 13.747C78.7226 14.359 81.6616 13.7422 84.4397 13.6713C91.2469 13.4976 99.1752 14.6254 105.393 17.5266C112.325 20.7615 116.765 26.7279 119.321 33.7969C123.688 45.8679 118.519 82.1651 115.335 95.1896C113.576 102.568 111.112 109.759 107.979 116.663C105.691 121.606 100.659 128.227 95.7334 130.82C93.7724 131.852 90.5168 132.474 88.4001 133.308C88.2086 133.383 87.8026 133.47 87.7617 133.813C87.5983 135.28 88.091 136.737 88.2774 138.17C89.1532 144.843 90.7237 151.416 91.5944 158.072C91.6915 158.818 91.4591 159.69 91.1476 160.359C89.2964 162.345 61.3215 162.151 56.9425 161.709C52.6526 161.275 32.9433 162.301 30.699 160.864C30.173 160.024 30.3621 159.427 30.8063 158.421C31.654 156.511 32.6703 154.745 33.5818 152.817C38.1906 143.051 44.0098 132.395 45.8789 121.689C46.0116 120.932 46.1827 119.039 45.8942 118.4C44.5715 115.48 43.1799 112.104 41.9288 109.205C37.7387 99.4986 31.9016 86.6227 33.8498 75.9345C37.9428 71.2261 42.9348 72.9784 48.2484 73.4104C50.503 73.5935 55.0991 73.6967 57.2975 73.5041L57.6037 73.4754L57.8438 73.4003C59.0668 73.0058 59.4347 72.9448 59.9862 71.8708C59.8609 70.1748 53.8658 66.0936 52.247 65.428C48.8434 64.0272 46.5325 68.0788 42.6871 67.5229C39.6946 67.2687 36.2961 64.3 33.232 65.6271C26.5984 68.5023 30.3876 76.9197 20.3605 72.6376C20.0796 70.4232 18.5451 69.341 18.4302 67.0989C18.0727 60.1118 23.2712 51.3312 31.2402 53.3341C34.0004 54.0282 35.4969 56.1121 38.9286 55.3286C44.4438 53.8331 44.6993 50.2838 51.0188 51.0271C55.0199 51.4976 60.0321 56.8063 61.8833 56.6621C63.9285 55.5017 63.6271 51.9235 62.9096 50.0198C61.6789 46.5918 57.6753 44.7113 54.7262 43.4709C47.8091 40.5627 44.4872 43.8106 39.0001 47.1288C35.5913 49.1918 32.2233 46.2775 29.3023 44.7694C25.7071 42.9124 23.3937 47.4288 20.5876 48.5843C16.9057 50.1014 15.0316 44.5583 14 42.0848C16.3517 37.4099 14.9652 35.5515 19.8575 32.3911C26.8 27.9065 27.63 34.3579 33.7045 34.5857C36.319 34.4106 38.4613 31.5912 40.3865 30.4029C52.7907 22.747 62.3837 37.718 74.3462 36.2043C77.4256 35.8149 79.2259 33.7424 80.9162 31.3414L81.1333 27.875C66.0225 32.4208 70.46 23.5856 60.7878 20.5814C57.397 19.5284 53.2377 24.7483 49.1524 24.2739C46.3769 24.0707 44.4234 22.1223 41.7296 21.4576C37.1949 20.3387 35.1445 26.9217 30.6454 25.8922C27.7371 25.226 27.6043 22.2076 25.9446 19.6952C27.0885 17.7949 28.9655 14.5823 30.0506 12.5073C30.1834 12.2556 29.6574 12.1411 30.1936 10.966C31.4523 10.2381 31.3067 11.1779 32.3919 10.7052C40.6622 7.10244 39.8631 11.6781 46.3001 11.9853C48.519 12.0912 52.3976 8.98232 54.4965 8.13569C55.7833 7.61695 57.249 7.37027 58.6277 7.08606ZM73.4117 114.696L70.7616 113.97C68.701 114.376 64.5466 115.134 63.1856 116.672C62.2689 119.75 68.2107 119.996 70.187 120.256C73.0927 120.639 75.5798 121.064 78.4522 120.25C80.5537 120.053 84.5829 119.783 85.8417 117.838C85.5685 115.558 78.4138 114.37 76.1898 113.812L73.4117 114.696ZM74.6857 70.2365C73.4269 69.8263 72.62 70.2116 71.3434 70.2145C70.7127 70.8232 70.4703 71.0437 70.3503 71.9975C69.306 80.2614 68.4531 88.6075 67.7331 96.9093C67.5901 98.5682 66.898 102.486 67.5286 103.837C69.6249 105.89 77.2901 105.089 80.4793 105.135C83.1884 104.633 83.0966 101.951 80.8394 100.809C79.0418 99.9002 75.1507 101.378 73.9965 99.1903C72.6687 95.044 77.1803 72.2424 74.6857 70.2365ZM105.742 73.0661C103.896 70.3793 94.4186 69.744 91.3211 70.1698C89.2632 70.3814 82.5938 71.2854 83.0097 74.0667C85.0269 76.9617 94.2651 77.227 97.536 76.7473C99.7116 76.5262 106.204 76.1488 105.742 73.0661Z" fill="#030303"/>
</svg>
